<?xml version="1.0" encoding="UTF-8"?>
<svg xmlns="http://www.w3.org/2000/svg" width="256" height="256" viewBox="0 0 256 256" role="img" aria-labelledby="title description">
  <title id="title">Zeus Files</title>
  <desc id="description">A rounded blue folder for the Files application.</desc>
  <defs>
    <linearGradient id="tile" x1="28" y1="18" x2="228" y2="242" gradientUnits="userSpaceOnUse">
      <stop offset="0" stop-color="#5A7FE5"/>
      <stop offset="0.52" stop-color="#344CA9"/>
      <stop offset="1" stop-color="#272D76"/>
    </linearGradient>
    <linearGradient id="folder" x1="44" y1="78" x2="205" y2="205" gradientUnits="userSpaceOnUse">
      <stop offset="0" stop-color="#D7ECFF"/>
      <stop offset="0.52" stop-color="#A7C9FA"/>
      <stop offset="1" stop-color="#7A96E8"/>
    </linearGradient>
    <linearGradient id="folderTop" x1="55" y1="68" x2="200" y2="128" gradientUnits="userSpaceOnUse">
      <stop offset="0" stop-color="#EEF8FF"/>
      <stop offset="1" stop-color="#AFD1FA"/>
    </linearGradient>
    <filter id="shadow" x="-20%" y="-20%" width="140%" height="150%">
      <feGaussianBlur in="SourceAlpha" stdDeviation="8" result="blur"/>
      <feOffset dy="8" result="offset"/>
      <feComponentTransfer><feFuncA type="linear" slope="0.26"/></feComponentTransfer>
      <feMerge><feMergeNode/><feMergeNode in="SourceGraphic"/></feMerge>
    </filter>
  </defs>
  <rect x="10" y="10" width="236" height="236" rx="58" fill="url(#tile)"/>
  <path d="M35 75C66 33 112 22 158 30C202 38 227 66 236 104V172C218 218 178 239 124 240C70 240 31 217 20 178V114C22 98 27 84 35 75Z" fill="#FFFFFF" fill-opacity="0.06"/>
  <g filter="url(#shadow)">
    <path d="M42 91C42 78 52 68 65 68H108L126 85H193C205 85 214 95 214 107V181C214 194 204 204 191 204H65C52 204 42 194 42 181Z" fill="url(#folder)" stroke="#F2F8FF" stroke-opacity="0.48" stroke-width="3"/>
    <path d="M43 100C43 87 53 78 66 78H108L124 93H193C205 93 213 102 213 114V129H43Z" fill="url(#folderTop)"/>
    <path d="M43 124H213V181C213 194 203 204 190 204H66C53 204 43 194 43 181Z" fill="url(#folder)"/>
    <path d="M58 142H198" stroke="#FFFFFF" stroke-opacity="0.30" stroke-width="3" stroke-linecap="round"/>
  </g>
  <circle cx="62" cy="56" r="3" fill="#D9EBFF" fill-opacity="0.70"/>
  <circle cx="202" cy="204" r="3" fill="#B4C3FF" fill-opacity="0.60"/>
</svg>
